<svg xmlns="http://www.w3.org/2000/svg" width="80" height="80" viewBox="0 0 80 80"><title>scoot-thumbnail</title><g style="isolation:isolate"><g id="icons"><path d="M61.7163,43.2635l-5.397-6.182-1.3449,6.2217a82.6833,82.6833,0,0,1-3.5832,12.0518L50.1063,56.64a5.8219,5.8219,0,0,1-3.2439,1.6394h0a51.2988,51.2988,0,0,1-5.48.5321l-2.1215.0915a11.6163,11.6163,0,0,1-4.7045-.7766h0A.6369.6369,0,0,1,34.27,57.16l.8942-1.2409a35.8978,35.8978,0,0,0,4.3366-9.3362l.3258-1.0879a3.021,3.021,0,0,0,.127-.8666v-.2549a3.021,3.021,0,0,0-2.19-2.9043l-6.6549-1.9048q-4.6523-1.3316-9.3875-2.3418c-.1287,0-.2576-.0031-.3864-.0111h0a63.7683,63.7683,0,0,1-8.3611-1.0779l-4.7285-.9308a33.9785,33.9785,0,0,1-4.6316-1.528,1.056,1.056,0,0,0-1.4176.7693h0a1.0588,1.0588,0,0,0,.6114,1.188h0A46.92,46.92,0,0,0,11.18,38.3933l7.362,1.6811a11.9016,11.9016,0,0,1,9.23,10.885l.2817,4.6613.0006.001a3.9078,3.9078,0,1,0,4.9944,5.8324H45.7918a31.4536,31.4536,0,0,0,4.2968-.2949h0a7.898,7.898,0,0,0,6.2864-4.9727l4.126-10.6583a2.3484,2.3484,0,0,1,.6672-.94l.48-.4092A.6452.6452,0,0,0,61.7163,43.2635Z" fill="#ff1d23"/><path d="M61.846,43.2126l-1.5731-1.7364h0l-3.3747-3.7251-.9855.7132-.82,3.6567-.0062.0908A1.7791,1.7791,0,0,1,57.843,41.88h0a3.6656,3.6656,0,0,1,.8892,3.8621l-3.05,8.4449a9.4078,9.4078,0,0,1-7.8264,6.0643l-7.98.9163v.2652h5.42a33.9044,33.9044,0,0,0,4.4659-.2953h0A8.3379,8.3379,0,0,0,54.3,59.0295a7.8989,7.8989,0,0,0,1.9946-2.8732l4.2884-10.6754a2.3556,2.3556,0,0,1,.6934-.9414l.4993-.41A.63.63,0,0,0,61.846,43.2126Z" fill="#d40d12" style="mix-blend-mode:multiply"/><path d="M38.66,42.3011l-.0769.755A27.1732,27.1732,0,0,1,33.98,55.0816a2.2293,2.2293,0,0,1-2.6474.776l-.016-.0062c-.0286-.011-.0607-.0216-.0955-.0318a2.1238,2.1238,0,0,1-1.5221-1.91q-.0245-.4273-.0574-.8542l-.1467-1.8991c-.0345-.1872-.0712-.4248-.11-.6987a16.28,16.28,0,0,0-5.2077-9.7466h0a6.3847,6.3847,0,0,0-.8194-.5855c-.6679-.4182-1.3146-.8681-1.9537-1.3292a14.2584,14.2584,0,0,0-2.9673-1.8314c-.6575-.095-1.5973-.1748-2.4339-.3106-4.6651-.7574-9.2394-1.1316-13.5659-3.0338l-.0424-.0187.091,1.7669,6.7492,2.5347,6.73,1.5214c6.9269,1.2778,11.5329,6.381,11.9582,13.249l.1968,3.1787.0006.0009a3.706,3.706,0,0,0-1.908,3.4323,3.77,3.77,0,0,0,3.11,3.4571c.0123-.0856.0234-.1714.0352-.2571a3.64,3.64,0,0,0,.6662.062,3.5843,3.5843,0,0,0,2.5354-1.0419v.3553a3.8051,3.8051,0,0,0,.4382-.4492h.0482a5.6885,5.6885,0,0,0,1.348-3.2066.599.599,0,0,1-.2036-.8858l.8732-1.1826a33.84,33.84,0,0,0,4.2345-8.8978l.3181-1.0368a2.8152,2.8152,0,0,0,.124-.8259v-.243A4.0314,4.0314,0,0,0,38.66,42.3011Z" fill="#d40d12" style="mix-blend-mode:multiply"/><path d="M18.5415,40.0743,11.18,38.3933a46.9139,46.9139,0,0,1-6.7127-2.0808l.714,5.5471a1.9339,1.9339,0,0,0,1.7029,1.675l19.062,2.1338a15.7711,15.7711,0,0,0-1.6719-2.4367A11.8759,11.8759,0,0,0,18.5415,40.0743Z" fill="#323232" stroke="#1c1c1c" stroke-linecap="round" stroke-linejoin="round" stroke-width="1.182"/><path d="M61.6712,48.9259h1.8593a0,0,0,0,1,0,0v8.7348a.7865.7865,0,0,1-.7865.7865h-.2863a.7865.7865,0,0,1-.7865-.7865V48.9259A0,0,0,0,1,61.6712,48.9259Z" transform="translate(-14.2092 23.6646) rotate(-19.2679)" fill="#aab3b6" stroke="#1c1c1c" stroke-linecap="round" stroke-linejoin="round" stroke-width="1.182"/><path d="M21.402,61.454H13.445A3.0161,3.0161,0,0,1,10.5,57.7662L7.2019,54.6239a9.2792,9.2792,0,1,0,17.1411,6.83Z" fill="#323232" stroke="#1c1c1c" stroke-linecap="round" stroke-linejoin="round" stroke-width="1.182"/><polygon points="59.84 47.235 60.58 49.35 61.48 49.035 60.371 45.863 59.84 47.235" fill="#f2f2f2" stroke="#1c1c1c" stroke-linecap="round" stroke-linejoin="round" stroke-width="1.182"/><path d="M34.27,57.16a.6369.6369,0,0,0,.2863.9661h0a11.6165,11.6165,0,0,0,3.5029.7662q.2995.0181.6.0207t.6015-.01l2.1215-.0915q1.0322-.0445,2.0616-.1305t2.0543-.2134q.6833-.0849,1.3643-.1882l1.1068-.1678q.07-.0107.14-.0236l.0472-.0094c.03-.006.0609-.0119.0911-.0186l.057-.0133c.0266-.0062.0531-.0123.08-.019l.0618-.0164c.0244-.0065.0488-.0131.073-.02l.0647-.0193.068-.0211.0671-.0223.0635-.022.0692-.0254.0591-.0227.0713-.0287.0544-.023c.0247-.0106.0493-.0213.0737-.0323l.0491-.0227c.0256-.012.0512-.024.0766-.0364l.043-.0216c.0269-.0135.0537-.0271.08-.0412l.034-.0185c.0292-.0158.0583-.0316.087-.0481l.0156-.0092a4.3722,4.3722,0,0,0,.4279-.2814l.0006,0,.7118-10.3929-.4414,2.638a8.2367,8.2367,0,0,1-8.0058,6.8765l-7.4594.1068Z" fill="#323232" stroke="#1c1c1c" stroke-linecap="round" stroke-linejoin="round" stroke-width="1.182"/><path d="M45.0394,28.8225h2.0819a0,0,0,0,1,0,0v1.03a0,0,0,0,1,0,0H45.0394a.4356.4356,0,0,1-.4356-.4356v-.1586a.4356.4356,0,0,1,.4356-.4356Z" transform="translate(-8.0569 21.8043) rotate(-24.6529)" fill="#4b4e50" stroke="#1c1c1c" stroke-linecap="round" stroke-linejoin="round" stroke-width="1.182"/><path d="M13.445,55.4134H24.5788A9.8445,9.8445,0,0,0,11.883,49.777a6.9209,6.9209,0,0,1-2.4807.4632H7.5186a.549.549,0,0,0-.5474.5474v1.1342a.549.549,0,0,0,.5474.5474h.4991c-.154.1751-4.4706,2.1546-4.4706,2.1546H5.4907a4.2769,4.2769,0,0,1,2.95,1.18l2.06,1.9622A3.0316,3.0316,0,0,1,13.445,55.4134Z" fill="#4b4b4b" stroke="#1c1c1c" stroke-linecap="round" stroke-linejoin="round" stroke-width="1.182"/><path d="M39.1179,39.2226l-14.95-2.4021a.817.817,0,0,0-.9429.7315q3.97.8933,7.8839,2.0124l6.6548,1.9048a3.021,3.021,0,0,1,2.19,2.9043v.2549a3.0208,3.0208,0,0,1-.127.8666l-.0317.1057a.989.989,0,0,0,.8048-.6891l.68-2.22A2.71,2.71,0,0,0,39.1179,39.2226Z" fill="#595959" stroke="#1c1c1c" stroke-linecap="round" stroke-linejoin="round" stroke-width="1.182"/><path d="M27.949,53.89h-4.12a9.7952,9.7952,0,0,1,.75,1.5238h3.4622Z" fill="#1c1c1c" stroke="#1c1c1c" stroke-linecap="round" stroke-linejoin="round" stroke-width="1.182"/><path d="M22.1982,30.0243A5.6746,5.6746,0,0,0,17.6,26.0108c-2.7127-.4123-6.1161-.86-8.0733-1.0851a5.3,5.3,0,0,0-4.9244,2.2016A9.0556,9.0556,0,0,0,3.6233,28.72h0a18.0715,18.0715,0,0,0-.9415,3.8156h0a.925.925,0,0,0,.4974.9517,20.2906,20.2906,0,0,0,5.0663,1.7159l4.7284.9308a63.7766,63.7766,0,0,0,8.3611,1.0779,6.0218,6.0218,0,0,0,2.4968-.3751S22.6432,31.5454,22.1982,30.0243Z" fill="#595959" stroke="#1c1c1c" stroke-linecap="round" stroke-linejoin="round" stroke-width="1.182"/><path d="M51.5127,37.6922a20.9868,20.9868,0,0,1,.7387-2.6548h0a.7717.7717,0,0,1,1.2436-.3192h0a8.4045,8.4045,0,0,1,1.6134,1.9635l.9512,1.6011.26-1.2013-3.98-6.3783-3.242,1.9595,2.4152,5.0294Z" fill="#323232" stroke="#1c1c1c" stroke-linecap="round" stroke-linejoin="round" stroke-width="1.182"/><path d="M51.3912,55.3549h0a82.6833,82.6833,0,0,0,3.5832-12.0518l1.0852-5.02-.9512-1.6011a8.4045,8.4045,0,0,0-1.6134-1.9635h0a.7717.7717,0,0,0-1.2436.3192h0A20.9871,20.9871,0,0,0,51.13,40.39l-.4946,6.5116-.7115,10.3927A4.3612,4.3612,0,0,0,51.3912,55.3549Z" fill="#595959" stroke="#1c1c1c" stroke-linecap="round" stroke-linejoin="round" stroke-width="1.182"/><path d="M57.1258,33.936l-.03-.0159A11.8521,11.8521,0,0,1,54.02,31.6829L52.822,30.4183l-.4825.285,3.98,6.3783L60.61,41.9961a34.1268,34.1268,0,0,0-1.3-5.3007A4.65,4.65,0,0,0,57.1258,33.936Z" fill="#aab3b6" stroke="#1c1c1c" stroke-linecap="round" stroke-linejoin="round" stroke-width="1.182"/><path d="M67.6382,46.003a12.3119,12.3119,0,0,0-7.2145.01L61.48,49.0352l.2587-.09.1688-.059,1.17,3.3461,1.2265-.41a2.8227,2.8227,0,0,1,1.6737-2.9329,2.47,2.47,0,0,0,.9648-.75l.1821-.2348A2.5548,2.5548,0,0,0,67.6382,46.003Z" fill="#4b4b4b" stroke="#1c1c1c" stroke-linecap="round" stroke-linejoin="round" stroke-width="1.182"/><polygon points="60.152 49.499 60.152 49.499 60.152 49.499 60.412 49.409 60.58 49.35 59.84 47.235 58.349 51.087 60.357 50.086 60.192 49.612 60.152 49.499" fill="#1c1c1c" stroke="#1c1c1c" stroke-miterlimit="10" stroke-width="1.182"/><path d="M64.3048,55.7437l.5267,1.5066a.66.66,0,0,1-.4055.8414l-.5083.1777a.66.66,0,0,1-.8414-.4055l-.5208-1.49a2.0415,2.0415,0,1,0,1.7493-.63Z" fill="#aab3b6" stroke="#1c1c1c" stroke-linecap="round" stroke-linejoin="round" stroke-width="1.182"/><path d="M26.0944,59.0077a3.91,3.91,0,0,1,1.96-3.3861l-.0006-.001-.0125-.2073H13.445a3.0292,3.0292,0,0,0-3.02,3.02h0a3.0292,3.0292,0,0,0,3.02,3.02H26.9577A3.8893,3.8893,0,0,1,26.0944,59.0077Z" fill="#595959" stroke="#1c1c1c" stroke-linecap="round" stroke-linejoin="round" stroke-width="1.182"/><path d="M55.19,25.9325,53.23,26.3a2.2424,2.2424,0,0,1-.4687,2.8348l2.4294.4556a.9531.9531,0,0,0,1.1288-.9368V26.8693A.9531.9531,0,0,0,55.19,25.9325Z" fill="#6e7476" stroke="#1c1c1c" stroke-linecap="round" stroke-linejoin="round" stroke-width="1.182"/><path d="M52.39,21.2947l1.126-3.4869a7.667,7.667,0,0,0,.371-2.356h0" fill="none" stroke="#1c1c1c" stroke-linecap="round" stroke-linejoin="round" stroke-width="1.182"/><path d="M53.81,15.4535l-.7491.58a.1814.1814,0,0,1-.29-.17l.5914-3.949a.1814.1814,0,0,1,.3442-.0488l.6417,1.3973A1.8135,1.8135,0,0,1,53.81,15.4535Z" fill="#1c1c1c" stroke="#1c1c1c" stroke-linecap="round" stroke-linejoin="round" stroke-width="1.182"/><path d="M53.7818,23.5463h0a1.4848,1.4848,0,0,1,.94-.51l1.0425-.1349" fill="none" stroke="#1c1c1c" stroke-linecap="round" stroke-linejoin="round" stroke-width="1.182"/><circle cx="55.9516" cy="22.8944" r="0.1876" transform="translate(-0.8486 2.1948) rotate(-2.2303)" fill="none" stroke="#1c1c1c" stroke-linecap="round" stroke-linejoin="round" stroke-width="1.182"/><path d="M53.0446,23.2206V22a.7052.7052,0,1,0-1.41,0v1.201a1.1522,1.1522,0,0,0-.6837,1.1145,1.1725,1.1725,0,0,0,1.1812,1.0914h.3726a1.1736,1.1736,0,0,0,1.1846-1.1421A1.1516,1.1516,0,0,0,53.0446,23.2206Z" fill="#1c1c1c" stroke="#1c1c1c" stroke-linecap="round" stroke-linejoin="round" stroke-width="1.182"/><path d="M48.1634,27.1278v-.63a1.2923,1.2923,0,0,0-.58-1.0784h0a1.2923,1.2923,0,0,1-.58-1.0784v-.0374" fill="none" stroke="#1c1c1c" stroke-linecap="round" stroke-linejoin="round" stroke-width="1.182"/><path d="M47.4466,23.1163l-.2906-1.4294c-.0177-.14-.0626-.2328-.1367-.2606-.2458-.0921-.7176.5608-1.0536,1.4581s-.4093,1.6995-.1634,1.7915a.228.228,0,0,0,.2041-.0512l.9709-.5149A.9179.9179,0,0,0,47.4466,23.1163Z" fill="#1c1c1c" stroke="#1c1c1c" stroke-linecap="round" stroke-linejoin="round" stroke-width="1.182"/><path d="M47.6806,29.582l.0381-.0231-.9512-.8285L47.84,27.4986h-.1686a1.2538,1.2538,0,0,0-1.2447,1.4048h0a1.2538,1.2538,0,0,0,1.2447,1.1028h.2653Z" fill="none" stroke="#1c1c1c" stroke-linecap="round" stroke-linejoin="round" stroke-width="1.182"/><path d="M52.4035,25.4859l.0688-.0791h-.3416a1.1719,1.1719,0,0,1-1.1792-1.0754,1.1543,1.1543,0,0,1,.0452-.4035L50.97,23.905l-3.8426,4.4117a.5486.5486,0,0,0,.0534.774l.2209.1925a1.7,1.7,0,0,1,.2785.2988l1.7435,2.8837,2.0186-1.2206-1.0212-1.689a4.624,4.624,0,0,0,1.0839.1151,2.2438,2.2438,0,0,0,.898-4.1852Z" fill="#323232" stroke="#1c1c1c" stroke-linecap="round" stroke-linejoin="round" stroke-width="1.182"/><path d="M58.3492,51.0868l-.21.5419a8.5466,8.5466,0,0,1,2.0686-1.4682Z" fill="#323232" stroke="#1c1c1c" stroke-linecap="round" stroke-linejoin="round" stroke-width="1.182"/><path d="M67.2113,47.7838c-.0278.0406-.0566.0808-.087.12l-.1821.2348a2.47,2.47,0,0,1-.9648.75A2.8236,2.8236,0,0,0,64.58,50.2159a7.5711,7.5711,0,1,1-3.907.7736l-.3153-.9022c-.0193.0093-.0388.018-.058.0275l-.0918.0457a8.5451,8.5451,0,0,0-2.0686,1.4682h0L56.375,56.1864a7.8957,7.8957,0,0,1-2.6309,3.47,10.4729,10.4729,0,1,0,13.4673-11.873Z" fill="#323232" stroke="#1c1c1c" stroke-linecap="round" stroke-linejoin="round" stroke-width="1.182"/><path d="M19.7394,49.8929h1.69a0,0,0,0,1,0,0v7.3745a.7149.7149,0,0,1-.7149.7149h-.26a.7149.7149,0,0,1-.7149-.7149V49.8929A0,0,0,0,1,19.7394,49.8929Z" transform="translate(45.6236 1.9182) rotate(46.592)" fill="#aab3b6" stroke="#1c1c1c" stroke-linecap="round" stroke-linejoin="round" stroke-width="1.182"/><rect x="13.3495" y="58.6036" width="7.4048" height="1.344" rx="0.5685" ry="0.5685" fill="#aab3b6"/><path d="M26.436,46.672,22.86,50.0546a.2769.2769,0,0,0-.0108.3914L24.1964,51.87a.2768.2768,0,0,0,.3913.0108L27.36,49.2588A15.68,15.68,0,0,0,26.436,46.672Z" fill="#aab3b6" stroke="#1c1c1c" stroke-linecap="round" stroke-linejoin="round" stroke-width="1.182"/><circle cx="30.0033" cy="59.0077" r="1.1721" fill="#aab3b6" stroke="#1c1c1c" stroke-linecap="round" stroke-linejoin="round" stroke-width="1.182"/><path d="M28.8836,41.6855h0a25.0973,25.0973,0,0,1,2.2919,10.4779V53.219a.4.4,0,0,0,.7395.2117L32.9318,51.8a30.73,30.73,0,0,0,3.3416-7.374l.045-.149a.9868.9868,0,0,0-.64-1.2241l-6.217-2.017A.4746.4746,0,0,0,28.8836,41.6855Z" fill="#323232" stroke="#1c1c1c" stroke-linecap="round" stroke-linejoin="round" stroke-width="1.182"/><path d="M13.445,61.454a3.0292,3.0292,0,0,1-3.02-3.02h0a3,3,0,0,1,.0758-.6675L10.41,57.68a5.1562,5.1562,0,0,0,9.5082,3.7743Z" fill="#aab3b6" stroke="#1c1c1c" stroke-linecap="round" stroke-linejoin="round" stroke-width="1.182"/><path d="M61.7163,43.2635l-5.397-6.182-1.3449,6.2217a82.6833,82.6833,0,0,1-3.5832,12.0518L50.1063,56.64a5.8219,5.8219,0,0,1-3.2439,1.6394h0a51.2988,51.2988,0,0,1-5.48.5321l-2.1215.0915a11.6163,11.6163,0,0,1-4.7045-.7766h0A.6369.6369,0,0,1,34.27,57.16l.8942-1.2409a35.8978,35.8978,0,0,0,4.3366-9.3362l.3258-1.0879a3.021,3.021,0,0,0,.127-.8666v-.2549a3.021,3.021,0,0,0-2.19-2.9043l-6.6549-1.9048q-4.6523-1.3316-9.3875-2.3418c-.1287,0-.2576-.0031-.3864-.0111h0a63.7683,63.7683,0,0,1-8.3611-1.0779l-4.7285-.9308a33.9785,33.9785,0,0,1-4.6316-1.528,1.056,1.056,0,0,0-1.4176.7693h0a1.0588,1.0588,0,0,0,.6114,1.188h0A46.92,46.92,0,0,0,11.18,38.3933l7.362,1.6811a11.9016,11.9016,0,0,1,9.23,10.885l.2817,4.6613.0006.001a3.9078,3.9078,0,1,0,4.9944,5.8324H45.7918a31.4536,31.4536,0,0,0,4.2968-.2949h0a7.898,7.898,0,0,0,6.2864-4.9727l4.126-10.6583a2.3484,2.3484,0,0,1,.6672-.94l.48-.4092A.6452.6452,0,0,0,61.7163,43.2635Z" fill="none" stroke="#1c1c1c" stroke-linecap="round" stroke-linejoin="round" stroke-width="1.182"/><line x1="2" y1="68.2404" x2="32.1039" y2="68.2404" fill="#595959" stroke="#1c1c1c" stroke-linecap="round" stroke-linejoin="round" stroke-width="1.182"/><line x1="47.8961" y1="68.2404" x2="78" y2="68.2404" fill="#595959" stroke="#1c1c1c" stroke-linecap="round" stroke-linejoin="round" stroke-width="1.182"/><path d="M3.3246,29.6072l.9918.3827A28.0484,28.0484,0,0,0,10.01,31.5224l13.0789,2.0793" fill="none" stroke="#1c1c1c" stroke-linecap="round" stroke-linejoin="round" stroke-width="1.182"/><rect x="8.786" y="28.6494" width="10.5539" height="1.9156" rx="0.9232" ry="0.9232" transform="translate(4.202 -1.6516) rotate(7.8985)" fill="#fff"/></g></g></svg>